<svg width="300" height="300" viewBox="0 0 300 300" fill="none" xmlns="http://www.w3.org/2000/svg">
<path opacity="0.6" fill-rule="evenodd" clip-rule="evenodd" d="M32.0002 29.3333H224C226.829 29.3333 229.542 30.4571 231.543 32.4574C233.543 34.4578 234.667 37.1709 234.667 39.9999V50.6666H21.3335V39.9999C21.3335 37.1709 22.4573 34.4578 24.4577 32.4574C26.4581 30.4571 29.1712 29.3333 32.0002 29.3333Z" fill="black"/>
<path opacity="0.3" fill-rule="evenodd" clip-rule="evenodd" d="M53.3332 8H202.667C205.495 8 208.209 9.12381 210.209 11.1242C212.209 13.1246 213.333 15.8377 213.333 18.6667V29.3333H42.6665V18.6667C42.6665 15.8377 43.7903 13.1246 45.7907 11.1242C47.7911 9.12381 50.5042 8 53.3332 8Z" fill="black"/>
<path fill-rule="evenodd" clip-rule="evenodd" d="M10.6667 50.6667H245.333C248.162 50.6667 250.875 51.7906 252.876 53.7909C254.876 55.7913 256 58.5044 256 61.3334V221.333C256 224.162 254.876 226.875 252.876 228.876C250.875 230.876 248.162 232 245.333 232H10.6667C7.83769 232 5.12458 230.876 3.12419 228.876C1.12381 226.875 0 224.162 0 221.333V61.3334C0 58.5044 1.12381 55.7913 3.12419 53.7909C5.12458 51.7906 7.83769 50.6667 10.6667 50.6667ZM10.6667 72.0001V104H42.6667V72.0001H10.6667ZM10.6667 125.333V157.333H42.6667V125.333H10.6667ZM10.6667 178.667V210.667H42.6667V178.667H10.6667ZM213.333 72.0001V104H245.333V72.0001H213.333ZM213.333 125.333V157.333H245.333V125.333H213.333ZM213.333 178.667V210.667H245.333V178.667H213.333Z" fill="black"/>
<path d="M244.333 185C233.785 185 223.474 188.128 214.703 193.988C205.932 199.849 199.096 208.178 195.06 217.924C191.023 227.669 189.967 238.392 192.025 248.738C194.083 259.084 199.162 268.587 206.621 276.046C214.08 283.504 223.583 288.584 233.929 290.642C244.274 292.7 254.998 291.644 264.743 287.607C274.489 283.57 282.818 276.734 288.678 267.964C294.539 259.193 297.667 248.882 297.667 238.333C297.667 231.329 296.287 224.394 293.607 217.924C290.927 211.453 286.998 205.573 282.046 200.621C277.093 195.669 271.214 191.74 264.743 189.06C258.272 186.38 251.337 185 244.333 185ZM274.605 228.931L242.605 258.264C241.592 259.193 240.26 259.695 238.885 259.665C237.511 259.635 236.201 259.076 235.229 258.104L219.229 242.104C218.72 241.612 218.314 241.024 218.034 240.373C217.755 239.722 217.608 239.022 217.601 238.314C217.595 237.606 217.73 236.904 217.998 236.248C218.266 235.593 218.662 234.997 219.163 234.497C219.664 233.996 220.259 233.6 220.915 233.332C221.57 233.063 222.273 232.929 222.981 232.935C223.689 232.941 224.389 233.088 225.04 233.367C225.69 233.647 226.279 234.053 226.771 234.563L239.16 246.952L267.395 221.069C268.437 220.113 269.817 219.61 271.23 219.671C272.643 219.732 273.974 220.352 274.931 221.395C275.887 222.437 276.39 223.817 276.329 225.23C276.268 226.643 275.648 227.974 274.605 228.931Z" fill="black"/>
</svg>
